<svg xmlns="http://www.w3.org/2000/svg" width="1" height="1" class="visually-hidden" aria-hidden="true">
    <symbol id="dvd-logo" width="183.79" height="80.86" viewBox="0 0 183.79 80.86">
        <path d="M86.03 56.45C38.52 56.45 0 61.95 0 68.7s38.52 12.17 86.03 12.17 86.03-5.28 86.03-12.17c0-6.88-38.52-12.24-86.03-12.24Zm-3.08 16.66c-10.8 0-19.57-1.83-19.57-4.11 0-2.28 8.76-4.14 19.57-4.14s19.58 1.8 19.58 4.14c0 2.32-8.77 4.1-19.58 4.1Z"/>
        <path d="m162.93 15.88-1.19 5.08L151.08.82h-23.67L116.6 45.84h17.33l5.82-25.28 13.39 25.28h19.84l7.2-29.96h-17.25z"/>
        <path d="M181.1 12.04 183.79.82h-17.33l-2.63 11.22h17.27z"/>
        <path d="M44.77 26.96c-1.06 4.45-5.74 7.66-12.99 7.66-8.48 0-11-4.92-9.48-11.22a14.8 14.8 0 0 1 4.33-7.52H7.24A29.2 29.2 0 0 0 4.3 23.4C1.5 35.03 5.76 46.66 27.73 46.66c20.04 0 29.24-9.78 31.42-18.88.03-.14.17-.68.21-1.16h-14.5l-.09.34Z"/>
        <path d="M38.86 0C25.54 0 15.72 4.73 9.83 12.04h27.3c3.8 0 6.33 1 7.8 2.47a5.5 5.5 0 0 1 1.42 5.33l-.07.28h14.5c.17-.41.34-1.1.4-1.37C63.08 10.8 59.38 0 38.86 0Z"/>
        <path d="M66.58.82h17.1l-4.8 19.98h.15L106.4.82h22.84l-26.94 19.3 19.83 37.18-25.5-11.46-8.1-16.54-13.7 9-1.95 7.54h-17.1L66.57.82Z"/>
    </symbol>
</svg>
