<svg xmlns="http://www.w3.org/2000/svg" width="1200" height="600" preserveAspectRatio="none" viewBox="0 0 1200 600">
    <path fill="#ef821b" d="m0 372 158-61 159 41 42-27 36 9 48-30 77 34 25-24 16 6 73-31 82 22 65 33 16-7 66 35h10l44 17 135-22 148 72v161H0V372z"/>
    <path fill="#9a3916" d="m0 387 74 25h49l83-3 91-16 69-8 52 11 103-2 66 5 54-9h95l60 11 93 10 77 2 61-6h84l82-17 7 2v208H0V387Z"/>
    <path fill="#500202" d="M0 600V440l272-26 178 31 70-10 195 81 229-59 85 4 103-25 68 4v160H0z"/>
    <path fill="#250904" d="m1182 482-25 19-58-7-43-154-44 157-40-58-87 16-23 52-43-39-36 29-41-12-38 5-32 13-127-45-38 17-31 12-17-62-17 61-35-38-34 10-24-88-25 87-22-7-37 2-10 29-31-25-46 5-42-9-12 17-43-154-48 173-33 6v106h1200v-86l-18-32z"/>
</svg>