<svg xmlns="http://www.w3.org/2000/svg" width="1200" height="556" viewBox="0 0 1200 556" preserveAspectRatio="none">
  <path fill="#ef821b" d="M1200 195s-7-1-10 4-5 11-20 11-22-8-37 3-32 3-47 1-34-23-38-26-8 0-11 2-7 1-10 3-20 9-26 6-14 1-23 1-11-1-18 1-8 7-17 7-19 3-27 8 5 9-11 9-39-4-47-10-46-16-52-21-5-5-10-5-11-8-17-12c-4-4-3-10-12-8s-43 10-46 13c0 0-6-7-10-7s-8 0-12-3l-31-20c-6-5-5 3-8 0s-13-13-19-13-17-2-19-7-17-11-20-11-7 3-16 7-23 17-27 17-17 2-22 1-9 10-9 10l-26 4c-6 0-1-6-15-5s-16-1-20-3-5-5-7-4-7 9-12 9h-12c-2-1-5 0-8 5s-7 7-12 10-11 9-18 9-11-3-14-4-13-2-17-5-11-7-14-7-8 1-12 5-4 3-9 6-8-1-13 6-13 12-17 16-6 14-10 13-11-2-12 1-5 1-8 3-4-1-7-2-7-2-12-1-4 4-8 2-9-4-12-8-1-5-11-5-11-9-15-8-3 2-6 6-11 6-16 7-17 6-26 6-8-2-13 0-8 1-15 5-6 8-12 8-11-7-18-8-9-9-16-10-3 2-19 4-14-2-27 0-20 1-25-3L0 196v360h1200V195Z"/>
  <path fill="#9a3916" d="M1200 232c-8-21-68-12-77-10-5-9-14-3-27-6-5-1-3 5-7 4-4-2-4-5-8-5-16 21-14-10-24 12-6 8-32-17-47-7-16-11-12-12-25-2-14-3-1-14-26-12-12 0-10 3-25 1-12-3-35-6-39 6-4 11-20 10-26 17-3 2-4-4-14 4-13-9-28 10-47 6-29-9-46-2-73-5-14-6-27-4-40-1-72 16-297 22-376 26 0 0-55-19-88-17-34 2-36 6-51 1-14-5-44-16-54-14-11 2-43 3-46 1-3-3-15-18-31-16s-41 0-49 0v341h1200V232Z"/>
  <path fill="#500202" d="M0 556V270s131-11 182-21c36-7 146 18 176-2s35-5 63-5 119-6 145-2 62 34 85 32 89 9 123 0 51 38 136 25 164-4 204 2 86 20 86 20v237H0Z"/>
  <path fill="#250904" d="M1200 266s-105 91-262 46c-94-27-265 18-338 20-172 3-300-1-400-47S0 236 0 236v320h1200V266Z"/>
  <path fill="#250904" d="M81 127 12 374h138L81 127z"/>
  <path fill="#250904" d="m194 201-31 110h61l-30-110z"/>
  <path fill="#250904" d="m994 253-19 71h39l-20-71z"/>
  <path fill="#250904" d="m1135 167-48 171h95l-47-171z"/>
</svg>
