<svg xmlns="http://www.w3.org/2000/svg" width="1200" height="556" viewBox="0 0 1200 556" preserveAspectRatio="none">
  <path fill="#ef821b" d="M1200 229s-7-1-10 4c-2 6-5 11-20 11s-22-8-37 3-32 4-47 1c-15-2-34-23-38-26-4-2-8 0-11 2s-7 1-10 3-20 9-26 6c-7-2-14 1-23 1s-11-1-18 1-8 7-17 7-19 3-27 8 5 9-11 9-39-4-47-10c-8-5-46-16-52-21-6-4-5-5-10-4-6 0-11-8-17-12-4-4-3-11-12-9s-43 10-46 13c0 0-6-7-10-7s-8 0-12-3c-4-2-25-14-31-20s-5 3-8 0c-4-2-13-13-19-13s-17-2-19-7c-3-5-17-11-20-11s-7 3-16 8c-10 4-23 16-27 17h-22c-5-1-9 10-9 10l-26 4c-6 0-1-6-15-5-13 2-16-1-20-3s-5-5-7-4-7 9-12 9-10 2-12 0-5 0-8 5c-4 5-7 7-12 10-4 3-11 9-18 9s-11-3-14-4c-4-2-13-2-17-5s-11-7-14-7-8 1-12 5l-9 6c-5 2-8-1-13 6l-17 16c-4 4-6 14-10 13s-11-2-12 1c-1 4-5 1-8 3s-4-1-7-2-7-2-12-1c-5 0-4 4-8 2-3-1-9-4-12-8s-1-5-11-5-11-9-15-8c-3 1-3 2-6 6-4 4-11 6-16 7s-17 6-26 6-8-2-13 0S0 257 0 257v299h1200V229Z"/>
  <path fill="#9a3916" d="M1200 270c-16 8-31-15-44-10s-40-3-52-6c-4-1-3 5-7 3-3-2-3-5-7-4-15 18-13-10-22 10-6 7-31-17-44-7-15-11-11-12-24-3-13-3-1-13-25-12-11 0-9 3-24 1-11-3-33-7-37 4s-18 9-24 16c-3 2-5-4-14 3-12-9-27 9-46 5-27-9-44-3-70-6-14-6-27-5-40-2-71 13-298 15-380 16 0 0-57-19-93-18s-37 5-53 0c-15-5-47-17-58-15s-46 2-49-1c-4-3-17-18-34-16-17 1-44-2-53-1v329h1200V270Z"/>
  <path fill="#500202" d="M0 554V293s131-11 182-21c36-8 146 18 176-3 29-20 35-4 63-4s119-6 145-3c26 4 62 34 85 33 22-2 89 9 123 0 33-9 53 44 136 24 139-32 290 22 290 22v213H0Z"/>
  <path fill="#250904" d="m1159 313-24-125-29 146c-28 8-61 13-98 11l-14-68-12 66c-14-2-29-5-44-10-94-27-265 19-338 20-166 3-291-1-389-42l-17-89-15 75c-26-10-51-18-74-23L81 148 58 264c-35-6-58-7-58-7v299h1200V287s-15 13-41 26Z"/>
</svg>
