<svg xmlns="http://www.w3.org/2000/svg" width="1200" height="556" viewBox="0 0 1200 556" preserveAspectRatio="none">
  <path fill="#ef821b" d="M1200 219s-7-1-10 4c-2 6-5 11-20 11s-22-8-37 3-32 4-47 1-34-23-38-26-8 0-11 2-7 1-10 3-20 9-26 6-14 1-23 1-11-1-18 1-8 7-17 7-19 3-27 8 5 9-11 9-39-4-47-10c-8-5-46-16-52-21-6-4-5-5-10-4s-11-8-17-12c-4-4-3-11-12-9s-43 10-46 13c0 0-6-7-10-7s-8 0-12-3c-4-2-25-14-31-20s-5 3-8 0c-4-2-13-13-19-13s-17-2-19-7c-3-5-17-11-20-11s-7 3-16 8c-10 4-23 16-27 17h-22c-5-1-9 10-9 10l-26 4c-6 0-1-6-15-5s-16-1-20-3-5-5-7-4-7 9-12 9-10 2-12 0-5 0-8 5c-4 5-7 7-12 10-4 3-11 9-18 9s-11-3-14-4c-4-2-13-2-17-5s-11-7-14-7-8 1-12 5l-9 6c-5 2-8-1-13 6l-17 16c-4 4-6 14-10 13s-11-2-12 1c-1 4-5 1-8 3-2 1-4-1-7-2s-7-2-12-1-4 4-8 2c-3-1-9-4-12-8s-1-5-11-5-11-9-15-8-3 2-6 6c-4 4-11 6-16 7-4 1-17 6-26 6s-8-2-13 0-8 1-15 5c-8 4-6 8-12 8s-11-6-18-8-9-9-16-10c-8-1-3 2-19 4s-14-2-27 0-20 1-25-3L0 220v336h1200V219Z"/>
  <path fill="#9a3916" d="M1200 259c-7-20-63-12-71-10-5-9-13-4-25-7-4-1-3 5-7 3-3-2-3-4-7-4-15 19-13-9-22 10-6 7-31-16-44-7-15-11-11-11-24-3-13-2-1-13-25-12-11 0-9 3-24 1-11-3-33-7-37 4s-18 9-24 16c-3 2-5-3-14 4-12-9-27 8-46 4-27-9-44-3-70-6-14-6-27-5-40-2-71 14-298 15-380 17 0 0-57-20-93-19s-37 5-53 0c-15-5-47-16-58-15-11 2-46 2-49 0-4-3-17-19-34-17s-44-1-53-1v341h1200V259Z"/>
  <path fill="#500202" d="M0 556V284s131-10 182-20c36-8 146 18 176-3 29-21 35-4 63-4s119-6 145-3 62 34 85 32c22-1 89 9 123 0 33-9 51 39 136 25s164-3 204 3 86 19 86 19v223H0Z"/>
  <path fill="#250904" d="M1200 287s-105 91-262 46c-94-27-265 19-338 20-172 3-300-1-400-47C99 260 0 257 0 257v299h1200V287Z"/>
  <path fill="#250904" d="M81 148 12 395h138L81 148z"/>
  <path fill="#250904" d="m194 222-31 110h61l-30-110z"/>
  <path fill="#250904" d="m994 274-19 71h39l-20-71z"/>
  <path fill="#250904" d="m1135 188-48 171h95l-47-171z"/>
</svg>
